<svg width="17" height="14" viewBox="0 0 17 14" fill="none" xmlns="http://www.w3.org/2000/svg">
<path d="M16.0233 2.76252C15.9547 2.49624 15.8232 2.24997 15.6397 2.04401C15.4563 1.83804 15.226 1.6783 14.9681 1.57796C12.4717 0.621645 8.49847 0.630313 8.28 0.630313C8.06153 0.630313 4.0883 0.621645 1.59192 1.57796C1.33396 1.6783 1.10374 1.83804 0.920272 2.04401C0.736802 2.24997 0.605335 2.49624 0.536717 2.76252C0.348105 3.48337 0.12381 4.80083 0.12381 6.98648C0.12381 9.17214 0.348105 10.4896 0.536717 11.2104C0.605232 11.4769 0.736653 11.7233 0.920129 11.9294C1.10361 12.1355 1.33387 12.2953 1.59192 12.3957C3.98343 13.3109 7.72654 13.3426 8.23194 13.3426H8.32806C8.83345 13.3426 12.5787 13.3109 14.9681 12.3957C15.2261 12.2953 15.4564 12.1355 15.6399 11.9294C15.8233 11.7233 15.9548 11.4769 16.0233 11.2104C16.2119 10.4882 16.4362 9.17214 16.4362 6.98648C16.4362 4.80083 16.2119 3.48337 16.0233 2.76252ZM10.772 7.227L7.2765 9.53834C7.23262 9.56738 7.18161 9.58405 7.12892 9.58658C7.07624 9.58911 7.02385 9.57741 6.97734 9.55271C6.93084 9.52802 6.89197 9.49127 6.86488 9.44637C6.83779 9.40148 6.8235 9.35013 6.82354 9.29782V4.67515C6.8235 4.62283 6.83779 4.57148 6.86488 4.52659C6.89197 4.4817 6.93084 4.44494 6.97734 4.42025C7.02385 4.39556 7.07624 4.38385 7.12892 4.38638C7.18161 4.38891 7.23262 4.40559 7.2765 4.43462L10.772 6.74596C10.812 6.77233 10.8447 6.80809 10.8674 6.85005C10.8901 6.89201 10.9019 6.93888 10.9019 6.98648C10.9019 7.03408 10.8901 7.08095 10.8674 7.12291C10.8447 7.16487 10.812 7.20063 10.772 7.227Z" fill="white"/>
</svg>
