<svg width="17" height="17" viewBox="0 0 17 17" fill="none" xmlns="http://www.w3.org/2000/svg">
<path d="M12.0714 0.474976H4.80226C3.67802 0.476211 2.60016 0.93554 1.8052 1.75218C1.01024 2.56881 0.563108 3.67605 0.561905 4.83095V12.2983C0.563108 13.4532 1.01024 14.5605 1.8052 15.3771C2.60016 16.1938 3.67802 16.6531 4.80226 16.6543H12.0714C13.1957 16.6531 14.2735 16.1938 15.0685 15.3771C15.8634 14.5605 16.3106 13.4532 16.3118 12.2983V4.83095C16.3106 3.67605 15.8634 2.56881 15.0685 1.75218C14.2735 0.93554 13.1957 0.476211 12.0714 0.474976ZM8.43685 12.2983C7.71799 12.2983 7.01528 12.0794 6.41758 11.6691C5.81987 11.2588 5.35402 10.6757 5.07892 9.99347C4.80383 9.31122 4.73185 8.5605 4.8721 7.83624C5.01234 7.11197 5.3585 6.44669 5.8668 5.92453C6.37511 5.40236 7.02273 5.04676 7.72777 4.90269C8.43281 4.75863 9.16361 4.83257 9.82774 5.11516C10.4919 5.39776 11.0595 5.87631 11.4589 6.49032C11.8583 7.10432 12.0714 7.82619 12.0714 8.56465C12.0704 9.55457 11.6872 10.5036 11.0058 11.2036C10.3244 11.9036 9.40049 12.2973 8.43685 12.2983ZM12.9801 4.83095C12.8004 4.83095 12.6247 4.77621 12.4753 4.67364C12.3258 4.57108 12.2094 4.42529 12.1406 4.25473C12.0718 4.08417 12.0538 3.89649 12.0889 3.71543C12.124 3.53436 12.2105 3.36804 12.3376 3.2375C12.4646 3.10696 12.6266 3.01806 12.8028 2.98204C12.9791 2.94602 13.1618 2.96451 13.3278 3.03516C13.4938 3.10581 13.6357 3.22545 13.7356 3.37895C13.8354 3.53245 13.8887 3.71291 13.8887 3.89753C13.8887 4.14509 13.793 4.38251 13.6226 4.55756C13.4522 4.73261 13.2211 4.83095 12.9801 4.83095ZM10.8599 8.56465C10.8599 9.05695 10.7178 9.5382 10.4515 9.94753C10.1853 10.3569 9.80687 10.6759 9.36411 10.8643C8.92135 11.0527 8.43416 11.102 7.96413 11.0059C7.4941 10.9099 7.06236 10.6728 6.72348 10.3247C6.38461 9.97661 6.15384 9.53309 6.06035 9.05025C5.96685 8.56741 6.01484 8.06693 6.19823 7.6121C6.38163 7.15727 6.6922 6.76852 7.09067 6.49501C7.48914 6.2215 7.95761 6.07552 8.43685 6.07552C9.07948 6.07552 9.6958 6.33776 10.1502 6.80457C10.6046 7.27137 10.8599 7.90449 10.8599 8.56465Z" fill="white"/>
</svg>
