<svg width="24" height="11" viewBox="0 0 24 11" fill="none" xmlns="http://www.w3.org/2000/svg">
<g clip-path="url(#clip0_7_311)">
<path d="M3.47436 2.44493C3.47436 2.44493 2.63725 2.44493 1.87741 3.19421V0.176819H0V8.10146H1.89745V7.48117C1.89745 7.48117 2.34534 8.30001 3.47436 8.30001C3.47436 8.30001 6.12163 8.20146 6.12163 5.34204C6.12163 5.34349 6.02433 2.44493 3.47436 2.44493ZM3.06082 6.62754C2.39399 6.62754 1.85309 6.07972 1.85309 5.40435C1.85309 4.72899 2.39399 4.18262 3.06082 4.18262C3.72764 4.18262 4.26711 4.73044 4.26711 5.40435C4.26854 6.07972 3.72764 6.62754 3.06082 6.62754Z" fill="white"/>
<path d="M6.72549 0V1.83333C6.72549 1.83333 7.58264 1.7942 7.58264 3.41014V8.10145H9.3928V2.97681C9.3928 2.97681 9.47007 0 6.72549 0Z" fill="white"/>
<path d="M13.8188 2.46954C13.8188 2.46954 10.715 2.46954 10.715 5.40433C10.715 5.40433 10.6148 8.29998 13.8188 8.29998C13.8188 8.29998 16.994 8.29563 16.994 5.40433C16.994 5.40433 17.0971 2.46954 13.8188 2.46954ZM13.8188 6.62751C13.1519 6.62751 12.611 6.07969 12.611 5.40433C12.611 4.72896 13.1519 4.18259 13.8188 4.18259C14.4856 4.18259 15.025 4.73041 15.025 5.40433C15.0265 6.07969 14.4856 6.62751 13.8188 6.62751Z" fill="white"/>
<path d="M22.1755 2.66229V3.19418C22.1755 3.19418 21.6361 2.46954 20.6001 2.46954C20.6001 2.46954 17.9428 2.3565 17.9428 5.38403C17.9428 5.38403 17.9127 8.20577 20.5271 8.20577C20.5271 8.20577 21.5931 8.24925 22.1755 7.48113V7.92461C22.1755 7.92461 22.3072 9.31447 20.9793 9.31447H20.5271V11H21.2569C21.2569 11 24.0014 11.0304 24.0014 8.02896V2.66229H22.1755ZM21.0537 6.62751C20.3868 6.62751 19.8474 6.07968 19.8474 5.40432C19.8474 4.72896 20.3868 4.18258 21.0537 4.18258C21.7205 4.18258 22.26 4.73041 22.26 5.40432C22.26 6.07968 21.7191 6.62751 21.0537 6.62751Z" fill="white"/>
</g>
<defs>
<clipPath id="clip0_7_311">
<rect width="24" height="11" fill="white"/>
</clipPath>
</defs>
</svg>
